<svg width="68" height="68" viewBox="0 0 68 68" fill="none" xmlns="http://www.w3.org/2000/svg">
<g clip-path="url(#clip0_201_17400)">
<path d="M11.3333 51H56.6667C58.225 51 59.5 49.725 59.5 48.1667C59.5 46.6083 58.225 45.3333 56.6667 45.3333H11.3333C9.775 45.3333 8.5 46.6083 8.5 48.1667C8.5 49.725 9.775 51 11.3333 51ZM11.3333 36.8333H56.6667C58.225 36.8333 59.5 35.5583 59.5 34C59.5 32.4417 58.225 31.1667 56.6667 31.1667H11.3333C9.775 31.1667 8.5 32.4417 8.5 34C8.5 35.5583 9.775 36.8333 11.3333 36.8333ZM8.5 19.8333C8.5 21.3917 9.775 22.6667 11.3333 22.6667H56.6667C58.225 22.6667 59.5 21.3917 59.5 19.8333C59.5 18.275 58.225 17 56.6667 17H11.3333C9.775 17 8.5 18.275 8.5 19.8333Z" fill="white"/>
</g>
<defs>
<clipPath id="clip0_201_17400">
<rect width="68" height="68" fill="white"/>
</clipPath>
</defs>
</svg>
